<?xml version="1.0" standalone="no"?><!DOCTYPE svg PUBLIC "-//W3C//DTD SVG 1.1//EN" "http://www.w3.org/Graphics/SVG/1.1/DTD/svg11.dtd"><svg t="1734774769459" class="icon" viewBox="0 0 1202 1024" version="1.1" xmlns="http://www.w3.org/2000/svg" p-id="3970" xmlns:xlink="http://www.w3.org/1999/xlink" width="234.765625" height="200"><path d="M345.868053 206.546956a174.738724 174.738724 0 0 0 70.528229-35.264115 1249.155685 1249.155685 0 0 1 261.961992 5.037731 673.121415 673.121415 0 0 1 90.679152 60.452767c2.639771 32.150797 16.080436 59.022052 40.301845 80.60369a68.966532 68.966532 0 0 0-10.075462 40.301845h-30.226383v-40.301845h-40.301845c-7.395389-12.171157-10.750517-25.601747-10.075462-40.301845 6.720333 0 10.075461-3.355129 10.075462-10.075461 4.080562-54.095151-14.387759-60.805409-55.415037-20.150922-2.337507-12.473421-7.375238-22.548882-15.113192-30.226384-23.123184-14.387759-43.274106-9.350028-60.452768 15.113192a182.244943 182.244943 0 0 1 20.150923 35.264114c-28.160914 4.423127-51.666965 14.498589-70.528229 30.226384v30.226383c-6.720333 0-10.075461-3.355129-10.075461-10.075461-44.835803-3.244299-91.847905-9.964631-141.056458-20.150922 1.712828-13.31976-1.6423-25.077823-10.075461-35.264115 8.866406-7.133427 15.586739-15.536361 20.150923-25.188653-18.851188 3.617091-33.96438 13.692552-45.339576 30.226384-8.533916 23.717636-16.926775 47.233762-25.188653 70.528229-10.27697 20.553941-10.27697 40.704863 0 60.452767 23.687409-17.420472 50.558665-24.140805 80.60369-20.150922l20.150922-10.075462a768.636788 768.636788 0 0 1-20.150922 120.905535c2.720375 18.941867-3.989883 32.372457-20.150923 40.301845-9.652292 4.564184-18.055227 11.284517-25.188653 20.150923-43.002069-23.143334-44.674595-18.105604-5.03773 15.113192l-40.301845 40.301845c2.297205 4.020109 5.662409 5.692636 10.075461 5.03773-17.924246 11.78829-27.999707 28.574008-30.226384 50.377307 18.659754 63.626538 0.191434 66.981666-55.415037 10.075461l-5.03773 10.075461c30.961892 20.856205 54.467943 47.717384 70.528229 80.60369a419.340697 419.340697 0 0 0 60.452767 85.641421c-38.286753 2.720375-71.878341-9.027613-100.754612-35.264115-23.395221-13.118251-36.825811-33.269173-40.301845-60.452767-32.10042-81.742217-45.541085-165.701036-40.301845-251.886531-36.795584 17.984698-67.021968 11.264366-90.679152-20.150923a904.574911 904.574911 0 0 0 75.56596-50.377306A856.535111 856.535111 0 0 0 275.339825 272.037454c-19.284433-48.946591-25.99469-101.006499-20.150923-156.16965 45.117915-0.634754 85.41976 12.795836 120.905535 40.301845 10.287046 5.057882 11.969648 11.768139 5.037731 20.150923-15.29455 6.680031-27.052613 16.755492-35.264115 30.226384z" fill="#A195AF" p-id="3971"></path><path d="M658.207352 216.622417c7.737954 7.677501 12.775685 17.752963 15.113192 30.226384 41.027278-40.654486 59.495599-33.944229 55.415037 20.150922-0.100755-22.024958-10.176216-30.427893-30.226384-25.188653-17.420472 18.025-24.140805 39.858525-20.150923 65.490498 13.067873 36.856037 39.939128 53.641756 80.60369 50.377306v-30.226384c-13.00742 2.387884-23.082882-0.967244-30.226383-10.075461h40.301845v40.301845c-18.579151 24.040051-40.4026 24.040051-65.490499 0-0.040302 18.820962 4.997429 37.299358 15.113192 55.415037-0.705282 7.707728-4.060411 12.745458-10.075461 15.113192h-50.377306c-9.410481-10.760593-12.775685-24.191182-10.075461-40.301845-19.97964-1.178829-36.775434 5.541504-50.377307 20.150922-13.65225-6.931917-23.727711-17.007379-30.226383-30.226383-11.536403-13.027571-8.181275-24.785635 10.075461-35.264115a24.46322 24.46322 0 0 0-20.150923-5.03773c-6.720333 0-10.075461-3.355129-10.075461-10.075462 23.747862 1.6423 47.253913-0.030226 70.528229-5.03773 14.528815-3.798449 24.604276-12.191308 30.226384-25.188653 8.94701-25.742803 12.302138-52.603983 10.075461-80.60369z" fill="#8E352F" p-id="3972"></path><path d="M769.037426 357.678874h40.301845c5.410523 32.65457 22.206317 42.730031 50.377306 30.226384 3.324902 67.50559-0.030226 134.67869-10.075461 201.509225a148.411544 148.411544 0 0 1-15.113192-50.377306 746.390169 746.390169 0 0 0-15.113192 120.905535c-12.946968 61.057295-43.173351 113.107128-90.679151 156.169649-18.790735 13.108175-38.941658 16.473379-60.452768 10.075461a165.781639 165.781639 0 0 0 40.301845-75.565959c13.783231-19.324735 23.858692-41.158259 30.226384-65.490498l-40.301845-10.075462c36.05-80.785048 39.405129-163.061265 10.075461-246.8488 6.01505-2.367733 9.370179-7.405464 10.075461-15.113192-10.115763-18.115679-15.153494-36.594075-15.113192-55.415037 25.087899 24.040051 46.911348 24.040051 65.490499 0z" fill="#A297B1" p-id="3973"></path><path d="M557.452739 337.527952a24.46322 24.46322 0 0 1 20.150923 5.03773c-18.256736 10.47848-21.611864 22.236543-10.075461 35.264115 6.498673 13.219005 16.574134 23.294466 30.226383 30.226383 13.601873-14.609419 30.397667-21.329751 50.377307-20.150922-2.700224 16.110663 0.66498 29.541252 10.075461 40.301845 25.531219 19.103075 42.316937 44.291728 50.377306 75.565959l-5.037731 25.188653-40.301845-40.301845c-4.020109 2.297205-5.692636 5.662409-5.03773 10.075462a823.346542 823.346542 0 0 1-25.188653-30.226384c-3.858902 5.601956-8.896632 8.967161-15.113192 10.075461a49.692175 49.692175 0 0 0-5.037731-30.226384 436.922377 436.922377 0 0 1-20.150922 80.60369c-5.037731 18.46832-16.795794 30.226384-35.264115 35.264115 5.481051 7.224106 12.191308 12.261836 20.150923 15.113192-32.039967 47.959196-75.69694 64.744914-130.980996 50.377306 5.390372-17.742887 15.465833-31.173477 30.226383-40.301845 15.697569-28.130688 29.128158-58.357072 40.301845-90.679151l-10.075461-10.075462c-9.088066 35.002152-25.873784 65.228536-50.377306 90.679152-14.780702 7.979765-28.211291 7.979765-40.301845 0 26.095445-61.067371 36.170906-124.885342 30.226384-191.433764 51.082589 16.392775 88.029305-0.403018 110.830073-50.377306z" fill="#9E93AD" p-id="3974"></path><path d="M446.622666 347.603413v40.301845c5.944522 66.548422-4.130939 130.366393-30.226384 191.433764 12.090553 7.979765 25.521143 7.979765 40.301845 0-15.999832 21.319676-36.150755 24.674805-60.452768 10.075461 14.045193-11.959572 12.362591-18.66983-5.03773-20.150923a331.422222 331.422222 0 0 0-55.415037 40.301845c-4.413052 0.654905-7.778256-1.017622-10.075461-5.03773l40.301845-40.301845c-39.636865-33.218796-37.964338-38.256526 5.03773-15.113192 7.133427-8.866406 15.536361-15.586739 25.188653-20.150923-2.206526 11.838667 1.148603 21.914128 10.075462 30.226384 17.843642-28.241518 26.236501-58.467902 25.188653-90.679151-2.800978 9.229123-7.838709 15.949455-15.113192 20.150922a768.636788 768.636788 0 0 0 20.150922-120.905535c-1.732979-9.994858 1.632225-16.705115 10.075462-20.150922z" fill="#6D6277" p-id="3975"></path><path d="M285.415286 428.207103a24.46322 24.46322 0 0 1 20.150922 5.037731A1824.524975 1824.524975 0 0 0 290.453016 619.640867c-18.438094-63.425029-20.110621-127.243-5.03773-191.433764z" fill="#756986" p-id="3976"></path><path d="M658.207352 428.207103h50.377306c29.329668 83.787536 25.974539 166.063752-10.075461 246.8488l40.301845 10.075462c-6.367692 24.332239-16.443153 46.165763-30.226384 65.490498h-10.075461c31.304458-37.883734 21.228997-58.034657-30.226384-60.452768l10.075461-20.150922c6.21656-1.108301 11.25429-4.473505 15.113192-10.075461 9.672443-31.56642 18.065302-63.475406 25.188653-95.716882a567.3996 567.3996 0 0 1-60.452767-65.490498c-0.654905-4.413052 1.017622-7.778256 5.03773-10.075462l40.301845 40.301845 5.037731-25.188653c-8.060369-31.274232-24.846087-56.462885-50.377306-75.565959z" fill="#73677D" p-id="3977"></path><path d="M658.207352 498.735332a567.3996 567.3996 0 0 0 60.452767 65.490498 1237.568905 1237.568905 0 0 1-25.188653 95.716882c-3.858902 5.601956-8.896632 8.967161-15.113192 10.075461 1.30981-8.826104-2.045319-15.546437-10.075461-20.150923-24.785635 57.349525-58.367147 64.069858-100.754612 20.150923-7.879011 18.438094-1.168754 33.551286 20.150922 45.339575 33.420305 9.843726 60.29156 1.450866 80.60369-25.188653 51.455381 2.418111 61.530842 22.569033 30.226384 60.452768-40.755241 28.06016-84.412214 48.211082-130.980996 60.452767-60.553522 1.672527-121.00629 0-181.358303-5.03773-27.223896-10.196367-50.729947-25.309559-70.528228-45.339576v-40.301845c32.060118 13.360062 65.64163 18.397792 100.754612 15.113192a110.19532 110.19532 0 0 0 30.226384-45.339576c-5.057882-10.287046-11.768139-11.969648-20.150923-5.03773-6.236711 17.702585-17.994774 29.460649-35.264114 35.264114-31.636948-17.521227-60.190805-37.67215-85.641421-60.452767 2.226677-21.803298 12.302138-38.589017 30.226384-50.377307a331.422222 331.422222 0 0 1 55.415037-40.301845c17.400322 1.481093 19.082924 8.19135 5.03773 20.150923 24.302013 14.599343 44.452935 11.244215 60.452768-10.075461 9.994858-1.732979 16.705115 1.632225 20.150922 10.075461-14.760551 9.128368-24.836012 22.558958-30.226383 40.301845 55.284056 14.367608 98.941029-2.418111 130.980996-50.377306a751.710013 751.710013 0 0 1 70.528229-45.339576c-10.569159-4.957127-20.64462-3.2846-30.226384 5.037731l-10.075461-15.113192c6.528899-14.508664 9.873952-29.621856 10.075461-45.339576 6.21656-1.108301 11.25429-4.473505 15.113192-10.075461a823.346542 823.346542 0 0 0 25.188653 30.226384z" fill="#F8EFE4" p-id="3978"></path><path d="M396.245359 528.961715c16.16104-7.929388 22.871297-21.359978 20.150923-40.301845 7.274483-4.201467 12.312214-10.9218 15.113192-20.150922 1.047848 32.21125-7.345011 62.437633-25.188653 90.679151-8.926859-8.312256-12.281987-18.387717-10.075462-30.226384z" fill="#E1DAD5" p-id="3979"></path><path d="M476.849049 589.414483c-3.445808-8.443237-10.156065-11.808441-20.150922-10.075461 24.503522-25.450615 41.28924-55.676999 50.377306-90.679152l10.075461 10.075462c-11.173687 32.32208-24.604276 62.548463-40.301845 90.679151z" fill="#61566F" p-id="3980"></path><path d="M900.018422 347.603413c9.108217 7.143502 12.463346 17.218963 10.075461 30.226384 11.687535 65.329291 35.193586 125.782058 70.528229 181.358302a1350.111807 1350.111807 0 0 0-110.830074 30.226384 4668.213082 4668.213082 0 0 1 20.150923-171.282841 216.068266 216.068266 0 0 1 10.075461-70.528229z" fill="#A9A1B9" p-id="3981"></path><path d="M617.905507 478.584409c-0.201509 15.71772-3.546562 30.830911-10.075461 45.339576l10.075461 15.113192c9.581764-8.322331 19.657225-9.994858 30.226384-5.037731a751.710013 751.710013 0 0 0-70.528229 45.339576c-7.959614-2.851356-14.669872-7.889086-20.150923-15.113192 18.46832-5.037731 30.226384-16.795794 35.264115-35.264115a436.922377 436.922377 0 0 0 20.150922-80.60369c4.866448 9.551537 6.54905 19.626999 5.037731 30.226384z" fill="#655A6F" p-id="3982"></path><path d="M859.716577 387.905258c6.045277 14.105646 16.120738 24.181107 30.226384 30.226384a4668.213082 4668.213082 0 0 0-20.150923 171.282841c2.861431 19.294508-0.493698 36.080227-10.075461 50.377306a84.97644 84.97644 0 0 0-5.037731-40.301845c-1.994941 18.962018-7.032672 35.747737-15.113192 50.377306a49.692175 49.692175 0 0 0-5.03773-30.226383c-2.115847 15.697569-7.153577 29.128158-15.113192 40.301845a746.390169 746.390169 0 0 1 15.113192-120.905535 148.411544 148.411544 0 0 0 15.113192 50.377306c10.045235-66.830534 13.400363-134.003635 10.075461-201.509225z" fill="#72677D" p-id="3983"></path><path d="M980.622112 559.188099c18.609377 63.817972 1.813583 117.550406-50.377307 161.20738 25.601747 26.196199 50.7904 26.196199 75.56596 0 14.025042 37.480716 2.266979 57.631638-35.264115 60.452768 3.476034 30.105478-9.954556 43.536068-40.301845 40.301845-54.931415-13.037647-81.792594-48.301761-80.603689-105.792344a866.01612 866.01612 0 0 1 10.075461-75.565959c9.581764-14.29708 12.936892-31.082798 10.075461-50.377306a1350.111807 1350.111807 0 0 1 110.830074-30.226384z" fill="#BFC4D6" p-id="3984"></path><path d="M839.565654 649.86725c-5.702711 43.384936-12.423044 46.740065-20.150922 10.075462 7.959614-11.173687 12.997345-24.604276 15.113192-40.301845 4.866448 9.551537 6.54905 19.626999 5.03773 30.226383z" fill="#C3B9B8" p-id="3985"></path><path d="M678.358274 670.018173l-10.075461 20.150922c-20.31213 26.63952-47.183385 35.032379-80.60369 25.188653-21.319676-11.78829-28.029933-26.901482-20.150922-45.339575 42.387465 43.918936 75.968978 37.198603 100.754612-20.150923 8.030143 4.604486 11.385271 11.324818 10.075461 20.150923z" fill="#493E58" p-id="3986"></path><path d="M305.566208 659.942712c25.450615 22.780618 54.004472 42.93154 85.641421 60.452767 17.269341-5.803466 29.027404-17.561529 35.264114-35.264114 8.382784-6.931917 15.093041-5.249315 20.150923 5.03773a110.19532 110.19532 0 0 1-30.226384 45.339576c-35.112982 3.2846-68.694495-1.75313-100.754612-15.113192v40.301845c-16.060285-32.886306-39.566336-59.747485-70.528229-80.60369l5.03773-10.075461c55.606471 56.906205 74.074791 53.551077 55.415037-10.075461z" fill="#5B5068" p-id="3987"></path><path d="M940.320267 418.131642a98.920879 98.920879 0 0 0-30.226384-40.301845c2.387884-13.00742-0.967244-23.082882-10.075461-30.226384 0.987395-20.684922-5.732937-37.480716-20.150923-50.377306a33203.350045 33203.350045 0 0 1-40.301845-206.546956c-53.510775 11.667384-100.532952 36.856037-141.056457 75.56596l-20.150923 10.075461a1249.155685 1249.155685 0 0 0-261.961992-5.037731 174.738724 174.738724 0 0 1-70.528229 35.264115c8.211501-13.470892 19.969564-23.546353 35.264115-30.226384 6.931917-8.382784 5.249315-15.093041-5.037731-20.150923-35.485775-27.506009-75.787619-40.936599-120.905535-40.301845-5.843768 55.16315 0.86649 107.223059 20.150923 156.16965A856.535111 856.535111 0 0 1 179.622943 428.207103a904.574911 904.574911 0 0 1-75.56596 50.377306c23.657183 31.415288 53.883567 38.135621 90.679152 20.150923-5.23924 86.185495 8.201425 170.144314 40.301845 251.886531a446.92731 446.92731 0 0 1-20.150923-10.075461 365.890375 365.890375 0 0 1-70.528229 40.301845c16.100587 23.989673 39.616714 35.747737 70.528229 35.264114-9.400405 16.201342-2.690148 24.594201 20.150923 25.188653 21.692468-0.614603 35.123058-10.690064 40.301845-30.226384 28.876272 26.236501 62.46786 37.984489 100.754612 35.264115a419.340697 419.340697 0 0 1-60.452767-85.641421c19.798281 20.030017 43.304332 35.143209 70.528228 45.339576 60.352013 5.037731 120.80478 6.710257 181.358303 5.03773a57.712242 57.712242 0 0 1 30.226383 10.075462c-64.906121 22.438052-132.079221 25.793181-201.509225 10.075461 3.476034 30.105478-9.954556 43.536068-40.301845 40.301845a294.3546 294.3546 0 0 1-70.528228-20.150923c-23.173561 9.027613-46.689687 10.710215-70.528229 5.037731A202.184281 202.184281 0 0 0 139.321098 821.150092c-12.110704-21.934279-17.148435-45.44033-15.113192-70.528229 24.543824 1.843809 46.377348-4.876523 65.490498-20.150923-2.921884-46.75014-7.959614-93.762242-15.113192-141.056457 0.403018-19.435565 3.758147-37.903885 10.075461-55.415037-39.354752 1.53147-72.936264-10.226593-100.754612-35.264114v-50.377307c60.40239-18.347415 104.059364-56.976733 130.980996-115.867804-16.27187-32.745249-11.234139-61.299106 15.113192-85.64142 7.163653-24.181107 5.481051-47.677083-5.037731-70.528229 4.26192-31.264156 14.337381-59.807938 30.226384-85.641421 13.43059-6.720333 26.871255-6.720333 40.301845 0a45204.564426 45204.564426 0 0 0 130.980996 55.415037c44.614142-4.463429 88.281191-7.818558 130.980996-10.075461 37.984489 1.551621 74.931205 8.261878 110.830074 20.150922a520.770365 520.770365 0 0 1 156.169649-90.679151c29.974497 3.103242 46.760216 19.899036 50.377307 50.377306-4.120864 68.634042 9.309726 132.441938 40.301845 191.433764a441.829127 441.829127 0 0 1 25.188653 110.830074z" fill="#32293F" opacity=".98" p-id="3988"></path><path d="M829.490193 277.075184c13.299609 14.528815 30.085327 21.239072 50.377306 20.150923 14.417985 12.89659 21.138318 29.692384 20.150923 50.377306a216.068266 216.068266 0 0 0-10.075461 70.528229c-14.105646-6.045277-24.181107-16.120738-30.226384-30.226384-28.17099 12.503647-44.966784 2.428186-50.377306-30.226384 11.093083 13.0981 24.523673 18.13583 40.301845 15.113192-28.533706-19.22398-25.178578-27.616839 10.075461-25.188653 1.793432 36.291811 11.868893 36.291811 30.226384 0-18.992244-7.022596-22.347373-17.098058-10.075462-30.226384-7.627124-12.826062-14.337381-12.826062-20.150922 0-19.606848-5.390372-29.682309-18.820962-30.226384-40.301845z" fill="#896650" p-id="3989"></path><path d="M708.584658 287.150646c-2.166224 16.916699 4.554108 26.992161 20.150923 30.226383 7.143502 9.108217 17.218963 12.463346 30.226383 10.075461v30.226384c-40.664562 3.264449-67.535817-13.521269-80.60369-50.377306 12.876439-2.84128 22.951901-9.561613 30.226384-20.150922z" fill="#F98473" p-id="3990"></path><path d="M567.528201 377.829797c35.123058-47.687158 73.752376-51.042287 115.867804-10.075462 10.16614 15.365078 15.203871 32.160872 15.113192 50.377307a252.773172 252.773172 0 0 1-65.490498-40.301845c-22.236543 12.140931-44.070067 12.140931-65.490498 0z" fill="#F77368" p-id="3991"></path><path d="M859.716577 347.603413v-30.226384c5.813541-12.826062 12.523798-12.826062 20.150922 0-12.271912 13.128326-8.916783 23.203787 10.075462 30.226384-18.35749 36.291811-28.432952 36.291811-30.226384 0z" fill="#EBE3DE" p-id="3992"></path><path d="M537.301817 317.377029c0 6.720333 3.355129 10.075461 10.075461 10.075461 0 6.720333 3.355129 10.075461 10.075461 10.075462-22.800769 49.974288-59.747485 66.770082-110.830073 50.377306v-40.301845c-0.392943-12.654779 4.644788-22.730241 15.113192-30.226384 25.168502 12.886515 50.357155 12.886515 75.565959 0z" fill="#CBBCD4" p-id="3993"></path><path d="M627.980968 287.150646l20.150923 10.075461c-5.622107 12.997345-15.697569 21.390204-30.226384 25.188653-23.274315 5.007504-46.780367 6.680031-70.528229 5.03773v-30.226383c25.732728-8.94701 52.603983-12.302138 80.60369-10.075461z" fill="#F08872" p-id="3994"></path><path d="M416.396282 377.829797c-30.045025-3.989883-56.916281 2.73045-80.60369 20.150922-10.27697-19.747904-10.27697-39.898827 0-60.452767a2104.6631 2104.6631 0 0 0 45.339576-50.377306c8.866406 28.674763 25.652124 35.395095 50.377306 20.150922 1.360187 24.402767-3.677543 47.908818-15.113192 70.528229z" fill="#CCBDD5" p-id="3995"></path><path d="M718.660119 277.075184c-0.675056 14.700098 2.680073 28.130688 10.075462 40.301845-15.596814-3.234223-22.317147-13.309684-20.150923-30.226383 0-6.720333 3.355129-10.075461 10.075461-10.075462z" fill="#832C27" p-id="3996"></path><path d="M728.735581 266.999723c0 6.720333-3.355129 10.075461-10.075462 10.075461s-10.075461 3.355129-10.075461 10.075462c-7.274483 10.58931-17.349944 17.309642-30.226384 20.150922-3.989883-25.631973 2.73045-47.465498 20.150923-65.490498 20.050168-5.23924 30.125629 3.163695 30.226384 25.188653z" fill="#F8AB8A" p-id="3997"></path><path d="M406.320821 236.773339c-4.564184 9.652292-11.284517 18.055227-20.150923 25.188653 8.433161 10.186291 11.78829 21.944355 10.075461 35.264115 49.208553 10.186291 96.220655 16.906624 141.056458 20.150922-25.208804 12.886515-50.397457 12.886515-75.565959 0-10.468404 7.496143-15.506135 17.571604-15.113192 30.226384-8.443237 3.445808-11.808441 10.156065-10.075462 20.150922l-20.150922 10.075462c11.435649-22.61941 16.473379-46.125462 15.113192-70.528229-24.725182 15.244173-41.5109 8.52384-50.377306-20.150922a2104.6631 2104.6631 0 0 1-45.339576 50.377306c8.261878-23.294466 16.654737-46.810593 25.188653-70.528229 11.375196-16.533832 26.488388-26.609293 45.339576-30.226384z" fill="#9887AF" p-id="3998"></path><path d="M769.037426 236.773339h20.150922c22.901523 4.604486 36.332113 18.035076 40.301845 40.301845 0.544075 21.480883 10.619536 34.911473 30.226384 40.301845v30.226384c-35.254039-2.428186-38.609167 5.964673-10.075461 25.188653-15.778172 3.022638-29.208762-2.015092-40.301845-15.113192h-10.075462a68.966532 68.966532 0 0 1 10.075462-40.301845c-24.221409-21.581638-37.662074-48.452893-40.301845-80.60369z" fill="#A58369" p-id="3999"></path><path d="M658.207352 216.622417c2.226677 27.999707-1.128452 54.860886-10.075461 80.60369l-20.150923-10.075461a91.74715 91.74715 0 0 0-10.075461-50.377307c8.261878-16.231568 21.702544-22.951901 40.301845-20.150922z" fill="#F8B48F" p-id="4000"></path><path d="M658.207352 216.622417c-18.599301-2.800978-32.039967 3.919354-40.301845 20.150922a91.74715 91.74715 0 0 1 10.075461 50.377307c-27.999707-2.226677-54.870962 1.128452-80.60369 10.075461 18.861263-15.727795 42.367315-25.803256 70.528229-30.226384a182.244943 182.244943 0 0 0-20.150923-35.264114c17.178661-24.46322 37.329584-29.500951 60.452768-15.113192z" fill="#933C32" p-id="4001"></path><path d="M406.320821 236.773339c11.486026-17.561529 28.291895-27.63699 50.377306-30.226383a301.800366 301.800366 0 0 1 110.830074 15.113191 1359.149496 1359.149496 0 0 1-110.830074-5.03773 161.87236 161.87236 0 0 1-50.377306 20.150922z" fill="#6E627F" p-id="4002"></path><path d="M345.868053 206.546956c-19.072848 35.646982-39.223771 40.684713-60.452767 15.113191a268.934212 268.934212 0 0 0 15.113192-65.490498l10.075461 70.528229c8.221576-13.329835 19.97964-20.050168 35.264114-20.150922z" fill="#5E526F" p-id="4003"></path><path d="M789.188348 236.773339h-20.150922a673.121415 673.121415 0 0 0-90.679152-60.452767l20.150923-10.075461a638.965601 638.965601 0 0 0 65.490498 50.377306c1.027697-32.241476 7.737954-62.46786 20.150922-90.679151-6.025126 26.800727-4.352599 53.671982 5.037731 80.60369a110.19532 110.19532 0 0 0 45.339576-30.226384l5.03773 10.075461c-19.848659 14.710173-36.634377 31.516043-50.377306 50.377306z" fill="#6A5D79" p-id="4004"></path><path d="M879.867499 297.226107c-20.291979 1.08815-37.077697-5.622107-50.377306-20.150923-3.969732-22.266769-17.400322-35.697359-40.301845-40.301845 13.742929-18.861263 30.528648-35.667133 50.377306-50.377306l-5.03773-10.075461a110.19532 110.19532 0 0 1-45.339576 30.226384c-9.39033-26.931708-11.062856-53.802963-5.037731-80.60369-12.412968 28.211291-19.123225 58.437675-20.150922 90.679151a638.965601 638.965601 0 0 1-65.490498-50.377306c40.523505-38.709922 87.545683-63.898575 141.056457-75.56596a33203.350045 33203.350045 0 0 0 40.301845 206.546956z" fill="#9F93AD" p-id="4005"></path><path d="M235.03798 750.621863c3.476034 27.183594 16.906624 47.334517 40.301845 60.452767-5.178787 19.536319-18.609377 29.611781-40.301845 30.226384-22.841071-0.594452-29.551328-8.987311-20.150923-25.188653-30.911515 0.483622-54.427642-11.274441-70.528229-35.264114a365.890375 365.890375 0 0 0 70.528229-40.301845c6.891615 3.657392 13.601873 7.012521 20.150923 10.075461z" fill="#BBC0D2" p-id="4006"></path><path d="M910.093883 377.829797a98.920879 98.920879 0 0 1 30.226384 40.301845c13.178703 49.933986 35.012228 96.956164 65.490498 141.056457 15.989757 61.520766 0.876565 113.570599-45.339576 156.169649a612.326082 612.326082 0 0 1 70.528229-25.188653v90.679152c-104.835174 107.68653-173.690876 87.535607-206.546956-60.452768-21.148393 76.573505-69.843097 123.595683-146.094188 141.056458a68.966532 68.966532 0 0 0-40.301845-10.075462c-1.712828-13.31976 1.6423-25.077823 10.075462-35.264114a300.409953 300.409953 0 0 0-50.377307 5.037731 57.712242 57.712242 0 0 0-30.226383-10.075462c46.568782-12.241685 90.225755-32.392608 130.980996-60.452767h10.075461a165.781639 165.781639 0 0 1-40.301845 75.565959c21.51111 6.397918 41.662032 3.032714 60.452768-10.075461 47.5058-43.062521 77.732184-95.112354 90.679151-156.169649 7.727879 36.664603 14.448211 33.309475 20.150922-10.075462 8.08052-14.62957 13.118251-31.415288 15.113192-50.377306a84.97644 84.97644 0 0 1 5.037731 40.301845 866.01612 866.01612 0 0 0-10.075461 75.565959c-1.188904 57.490582 25.672275 92.754696 80.603689 105.792344 30.347289 3.234223 43.777879-10.196367 40.301845-40.301845 37.531093-2.821129 49.289156-22.972052 35.264115-60.452768-24.775559 26.196199-49.964212 26.196199-75.56596 0 52.190889-43.656974 68.986683-97.389408 50.377307-161.20738-35.334643-55.576244-58.840694-116.029012-70.528229-181.358302z" fill="#332940" p-id="4007"></path></svg>